# File created by Blade
# Date/Time:  Thu Sep 25 15:31:15 2014
# Frame Rate: 120.000 fps
#------------------------------------------------------
:FULLY-SPECIFIED
:DEGREES
1523
root -5.203759 32.387123 -10.514631 374.045020 48.624190 1.722523
Spine -0.346007 1.612444 13.782597
Head -10.021687 -41.436686 19.705982
LeftShoulder -3.244633 20.475855 12.976086
LeftArm 50.018987 48.361165 -55.417793
LeftForeArm -8.135460 0.000000 24.415045
LeftHand -27.168014 -0.000000 6.060729
LeftHandThumb1 -26.253704 0.000000 33.147579
RightShoulder -14.655009 8.328687 -19.738731
RightArm -12.489645 -35.889352 91.298945
RightForeArm -10.163631 -0.000000 42.395310
RightHand -1.525963 0.000000 8.125959
RightHandThumb1 -24.326973 -0.000000 -32.862282
LeftUpLeg -15.043911 14.453020 0.542785
LeftLeg 49.750445 -0.000000 -0.000000
LeftFoot -15.742934 30.640282 -28.746177
LeftToeBase -10.088457 -0.000000 0.000000
RightUpLeg -29.089839 -6.447850 5.278818
RightLeg 23.944294 -0.000000 -0.000000
RightFoot -6.783812 -28.918154 -9.377183
RightToeBase 1.062197 -0.000000 -0.000000
1524
root -5.105077 32.392468 -10.386452 374.069319 48.160430 1.787812
Spine -0.119728 1.733132 13.655458
Head -10.512215 -41.232365 19.717849
LeftShoulder -3.230923 20.488056 12.851576
LeftArm 50.033737 48.577740 -55.219284
LeftForeArm -6.615396 0.000000 24.399707
LeftHand -26.303944 0.000000 4.740902
LeftHandThumb1 -26.253704 0.000000 33.147579
RightShoulder -14.581500 8.355660 -19.693229
RightArm -12.155891 -36.210006 91.268402
RightForeArm -9.780994 -0.000000 41.743901
RightHand -1.413687 -0.000000 8.251624
RightHandThumb1 -24.326973 -0.000000 -32.862282
LeftUpLeg -15.901954 14.245092 0.557756
LeftLeg 50.987948 -0.000000 -0.000000
LeftFoot -16.244846 29.512960 -28.417719
LeftToeBase -10.090583 -0.000000 0.000000
RightUpLeg -28.870876 -6.274654 5.223638
RightLeg 24.116497 -0.000000 -0.000000
RightFoot -7.138631 -28.760272 -9.307048
RightToeBase 1.039890 -0.000000 -0.000000
1525
root -5.008233 32.397466 -10.251122 374.029517 47.663253 1.801304
Spine 0.143544 1.896156 13.511914
Head -10.951199 -40.948549 19.795552
LeftShoulder -3.279751 20.666575 12.735707
LeftArm 50.252757 48.706662 -54.840564
LeftForeArm -5.094294 -0.000000 24.561284
LeftHand -25.604583 -0.000000 3.766346
LeftHandThumb1 -26.253704 0.000000 33.147579
RightShoulder -14.558108 8.311497 -19.609110
RightArm -11.773283 -36.500620 91.197343
RightForeArm -9.292323 -0.000000 41.224453
RightHand -1.473917 0.000000 8.377192
RightHandThumb1 -24.326973 -0.000000 -32.862282
LeftUpLeg -16.759863 14.082728 0.631373
LeftLeg 52.194833 -0.000000 -0.000000
LeftFoot -16.549027 28.194201 -27.915983
LeftToeBase -9.357923 -0.000000 0.000000
RightUpLeg -28.581453 -5.996479 5.193449
RightLeg 24.202654 -0.000000 -0.000000
RightFoot -7.498176 -28.677295 -9.133524
RightToeBase 0.915633 -0.000000 -0.000000
1526
root -4.905576 32.406476 -10.124152 374.086379 47.156449 1.914916
Spine 0.356420 2.040135 13.279456
Head -11.313170 -40.794817 19.863657
LeftShoulder -3.358440 20.697888 12.621396
LeftArm 50.291319 48.934747 -54.562359
LeftForeArm -3.729058 -0.000000 24.842526
LeftHand -25.203412 -0.000000 2.800484
LeftHandThumb1 -26.253704 0.000000 33.147579
RightShoulder -14.507679 8.333872 -19.514606
RightArm -11.527459 -36.761806 91.180001
RightForeArm -8.730170 0.000000 40.734094
RightHand -1.368039 -0.000000 8.539659
RightHandThumb1 -24.326973 -0.000000 -32.862282
LeftUpLeg -17.597665 13.785080 0.611336
LeftLeg 53.170055 -0.000000 -0.000000
LeftFoot -16.972524 26.897316 -27.781381
LeftToeBase -8.657900 -0.000000 0.000000
RightUpLeg -28.303877 -5.706809 5.082078
RightLeg 24.262034 -0.000000 -0.000000
RightFoot -7.632479 -28.712714 -9.296986
RightToeBase 1.078922 -0.000000 -0.000000
1527
root -4.801661 32.417619 -9.997365 374.134033 46.644977 2.022728
Spine 0.548457 2.177103 13.057346
Head -11.606626 -40.615854 19.883417
LeftShoulder -3.421556 20.786292 12.482118
LeftArm 50.339710 49.130861 -54.243635
LeftForeArm -2.386789 -0.000000 25.227436
LeftHand -24.930783 -0.000000 2.140612
LeftHandThumb1 -26.253704 0.000000 33.147579
RightShoulder -14.544841 8.328628 -19.441775
RightArm -11.210291 -37.100252 91.132327
RightForeArm -8.031327 -0.000000 40.225293
RightHand -1.216373 0.000000 8.766650
RightHandThumb1 -24.326973 -0.000000 -32.862282
LeftUpLeg -18.404631 13.447280 0.590415
LeftLeg 54.009869 -0.000000 -0.000000
LeftFoot -17.664667 25.447855 -28.223143
LeftToeBase -8.350679 -0.000000 0.000000
RightUpLeg -27.976506 -5.452638 4.966486
RightLeg 24.235876 -0.000000 -0.000000
RightFoot -7.853162 -28.639456 -9.383349
RightToeBase 1.034613 -0.000000 -0.000000
1528
root -4.694511 32.429904 -9.872080 374.208016 46.155506 2.161668
Spine 0.705220 2.296086 12.790372
Head -11.769781 -40.466078 19.830847
LeftShoulder -3.491160 20.890252 12.393988
LeftArm 50.402747 49.331818 -53.976204
LeftForeArm -1.145171 -0.000000 25.586769
LeftHand -24.601822 -0.000000 1.686418
LeftHandThumb1 -26.253704 0.000000 33.147579
RightShoulder -14.570431 8.350079 -19.355406
RightArm -11.010620 -37.368442 91.129144
RightForeArm -7.455261 -0.000000 39.836492
RightHand -1.103858 -0.000000 9.046573
RightHandThumb1 -24.326973 -0.000000 -32.862282
LeftUpLeg -19.176629 13.029587 0.551305
LeftLeg 54.603743 -0.000000 -0.000000
LeftFoot -18.235940 24.336186 -28.474411
LeftToeBase -8.675782 -0.000000 0.000000
RightUpLeg -27.637812 -5.167855 4.805388
RightLeg 24.199148 -0.000000 -0.000000
RightFoot -8.154469 -28.576426 -9.340466
RightToeBase 1.024664 -0.000000 -0.000000
1529
root -4.588763 32.444621 -9.746213 374.266327 45.685435 2.249454
Spine 0.816534 2.400808 12.585470
Head -11.845300 -40.329186 19.718684
LeftShoulder -3.575943 20.978312 12.270919
LeftArm 50.472970 49.569871 -53.673096
LeftForeArm 0.038944 0.000000 26.002812
LeftHand -24.481836 -0.000000 1.434129
LeftHandThumb1 -26.253704 0.000000 33.147579
RightShoulder -14.606795 8.372972 -19.311276
RightArm -10.855872 -37.684160 91.162160
RightForeArm -7.188139 -0.000000 39.492478
RightHand -1.105637 0.000000 9.039004
RightHandThumb1 -24.326973 -0.000000 -32.862282
LeftUpLeg -20.058524 12.743686 0.556633
LeftLeg 55.235420 -0.000000 -0.000000
LeftFoot -18.824439 23.196852 -28.724573
LeftToeBase -8.488973 -0.000000 0.000000
RightUpLeg -27.286795 -4.888207 4.681359
RightLeg 24.087973 -0.000000 -0.000000
RightFoot -8.396039 -28.516802 -9.305809
RightToeBase 0.991053 -0.000000 -0.000000
